<svg width="379" height="133" viewBox="0 0 379 133" fill="none" xmlns="http://www.w3.org/2000/svg">
<path d="M368.171 11.0833H227.4C221.42 11.0833 216.571 16.0455 216.571 22.1667V110.833C216.571 116.954 221.42 121.917 227.4 121.917H368.171C374.152 121.917 379 116.954 379 110.833V22.1667C379 16.0455 374.152 11.0833 368.171 11.0833Z" fill="#00509D"/>
<path d="M28.4575 54.5078C30.3057 52.2025 32.6157 50.3405 35.3878 48.9218C38.2175 47.5032 41.3362 46.7938 44.7437 46.7938C49.9414 46.7938 54.1285 48.5375 57.3048 52.0252C60.539 55.5128 62.156 60.2415 62.156 66.2118C62.156 68.0442 61.9827 70.0245 61.6362 72.1525C60.7699 77.2362 59.0663 81.7285 56.5251 85.6298C53.9839 89.4722 50.9233 92.4572 47.3425 94.5852C43.7618 96.6542 39.9791 97.6885 35.9942 97.6885C32.6446 97.6885 29.8146 96.9792 27.5046 95.5605C25.1945 94.1418 23.4908 92.3095 22.3935 90.0632L17.1091 120.565H2.29565L14.8568 47.5032H29.6703L28.4575 54.5078ZM46.6495 72.1525C46.8227 71.1475 46.9094 70.2315 46.9094 69.4038C46.9094 66.4482 46.0721 64.1429 44.3971 62.4878C42.7802 60.8328 40.7011 60.0052 38.1599 60.0052C35.2145 60.0052 32.529 61.0988 30.1034 63.2858C27.6778 65.4729 26.1185 68.4582 25.4255 72.2412C25.2522 73.3052 25.1656 74.2805 25.1656 75.1672C25.1656 78.0635 25.9741 80.3395 27.5912 81.9945C29.2082 83.6495 31.2873 84.4772 33.8285 84.4772C36.7738 84.4772 39.4593 83.3835 41.8849 81.1965C44.3682 78.9502 45.9565 75.9355 46.6495 72.1525ZM95.3098 46.7938C101.547 46.7938 106.485 48.5375 110.123 52.0252C113.819 55.4535 115.668 60.1529 115.668 66.1232C115.668 68.0738 115.523 69.8175 115.234 71.3545C115.003 72.7142 114.657 74.1622 114.195 75.6992H80.6696C80.6117 76.0538 80.583 76.6155 80.583 77.3838C80.583 79.9848 81.276 81.9649 82.6621 83.3245C84.0481 84.6842 85.896 85.3638 88.2063 85.3638C91.9024 85.3638 94.7321 83.7678 96.6959 80.5758H112.462C110.383 85.6002 107.005 89.7085 102.327 92.9005C97.6488 96.0925 92.3932 97.6885 86.5604 97.6885C80.3231 97.6885 75.3273 95.9152 71.5736 92.3685C67.8773 88.8218 66.0294 84.0042 66.0294 77.9158C66.0294 76.0835 66.2026 74.1918 66.5492 72.2412C67.4154 67.0985 69.2057 62.6062 71.9201 58.7638C74.6343 54.9215 78.0128 51.9661 82.0557 49.8972C86.0982 47.8282 90.5163 46.7938 95.3098 46.7938ZM100.681 67.9852C100.796 67.1575 100.854 66.5962 100.854 66.3005C100.854 63.9362 100.132 62.1332 98.6884 60.8918C97.2444 59.5915 95.3385 58.9412 92.9709 58.9412C90.4297 58.9412 88.1773 59.7392 86.2138 61.3352C84.308 62.8722 82.922 65.0888 82.0557 67.9852H100.681ZM108.218 33.6712L106.312 44.1338L87.0799 35.1785L89.0726 23.3858L108.218 33.6712ZM138.642 97.6885C134.831 97.6885 131.394 97.0678 128.333 95.8265C125.33 94.5852 122.963 92.8709 121.23 90.6838C119.497 88.4375 118.631 85.8662 118.631 82.9698C118.631 82.5562 118.689 81.8172 118.804 80.7532H133.098C132.982 82.5855 133.502 84.0635 134.657 85.1865C135.87 86.2505 137.574 86.7825 139.768 86.7825C141.617 86.7825 143.147 86.4278 144.36 85.7185C145.573 85.0092 146.179 84.0042 146.179 82.7038C146.179 81.4625 145.515 80.4872 144.187 79.7778C142.916 79.0095 140.779 78.0932 137.776 77.0292C134.657 75.9652 132.03 74.9308 129.893 73.9258C127.814 72.8618 126.023 71.3545 124.522 69.4038C123.02 67.4532 122.269 65.0002 122.269 62.0445C122.269 59.1482 123.107 56.5472 124.782 54.2418C126.457 51.8775 128.796 50.0449 131.799 48.7445C134.86 47.4441 138.382 46.7938 142.367 46.7938C146.352 46.7938 149.817 47.4735 152.763 48.8332C155.708 50.1335 157.989 51.9662 159.606 54.3305C161.223 56.6949 162.032 59.3549 162.032 62.3105L161.945 63.6405H148.518C148.634 61.8672 148.114 60.4485 146.959 59.3845C145.803 58.3205 144.158 57.7885 142.021 57.7885C140.346 57.7885 138.96 58.1432 137.863 58.8525C136.823 59.5618 136.303 60.5372 136.303 61.7785C136.303 63.0789 136.996 64.1725 138.382 65.0592C139.826 65.8868 142.05 66.8325 145.053 67.8965C148.171 68.9605 150.741 70.0245 152.763 71.0885C154.842 72.0935 156.603 73.5415 158.047 75.4332C159.549 77.2655 160.299 79.5709 160.299 82.3492C160.299 85.5412 159.347 88.2898 157.441 90.5952C155.593 92.9005 153.023 94.6738 149.731 95.9152C146.497 97.0975 142.8 97.6885 138.642 97.6885ZM186.948 97.6885C183.136 97.6885 179.7 97.0678 176.639 95.8265C173.636 94.5852 171.268 92.8709 169.536 90.6838C167.803 88.4375 166.937 85.8662 166.937 82.9698C166.937 82.5562 166.994 81.8172 167.11 80.7532H181.404C181.288 82.5855 181.808 84.0635 182.963 85.1865C184.176 86.2505 185.879 86.7825 188.074 86.7825C189.922 86.7825 191.453 86.4278 192.665 85.7185C193.878 85.0092 194.485 84.0042 194.485 82.7038C194.485 81.4625 193.82 80.4872 192.492 79.7778C191.221 79.0095 189.085 78.0932 186.082 77.0292C182.963 75.9652 180.335 74.9308 178.199 73.9258C176.119 72.8618 174.329 71.3545 172.828 69.4038C171.326 67.4532 170.575 65.0002 170.575 62.0445C170.575 59.1482 171.413 56.5472 173.087 54.2418C174.762 51.8775 177.101 50.0449 180.104 48.7445C183.165 47.4441 186.688 46.7938 190.673 46.7938C194.658 46.7938 198.123 47.4735 201.068 48.8332C204.014 50.1335 206.295 51.9662 207.912 54.3305C209.529 56.6949 210.338 59.3549 210.338 62.3105L210.251 63.6405H196.824C196.939 61.8672 196.419 60.4485 195.264 59.3845C194.109 58.3205 192.463 57.7885 190.326 57.7885C188.652 57.7885 187.266 58.1432 186.168 58.8525C185.129 59.5618 184.609 60.5372 184.609 61.7785C184.609 63.0789 185.302 64.1725 186.688 65.0592C188.132 65.8868 190.355 66.8325 193.359 67.8965C196.477 68.9605 199.047 70.0245 201.068 71.0885C203.148 72.0935 204.909 73.5415 206.353 75.4332C207.854 77.2655 208.605 79.5709 208.605 82.3492C208.605 85.5412 207.652 88.2898 205.746 90.5952C203.898 92.9005 201.328 94.6738 198.036 95.9152C194.802 97.0975 191.106 97.6885 186.948 97.6885Z" fill="#00509D"/>
<path d="M258.5 46.7938C264.737 46.7938 269.675 48.5375 273.313 52.0252C277.008 55.4535 278.857 60.1529 278.857 66.1232C278.857 68.0738 278.714 69.8175 278.424 71.3545C278.194 72.7142 277.848 74.1622 277.385 75.6992H243.859C243.802 76.0538 243.773 76.6155 243.773 77.3838C243.773 79.9848 244.466 81.9649 245.852 83.3245C247.238 84.6842 249.086 85.3638 251.396 85.3638C255.092 85.3638 257.922 83.7678 259.886 80.5758H275.652C273.573 85.6002 270.195 89.7085 265.517 92.9005C260.839 96.0925 255.583 97.6885 249.75 97.6885C243.513 97.6885 238.517 95.9152 234.763 92.3685C231.067 88.8218 229.219 84.0042 229.219 77.9158C229.219 76.0835 229.392 74.1918 229.739 72.2412C230.605 67.0985 232.395 62.6062 235.11 58.7638C237.824 54.9215 241.203 51.9661 245.245 49.8972C249.288 47.8282 253.706 46.7938 258.5 46.7938ZM263.871 67.9852C263.986 67.1575 264.044 66.5962 264.044 66.3005C264.044 63.9362 263.322 62.1332 261.878 60.8918C260.434 59.5915 258.529 58.9412 256.161 58.9412C253.619 58.9412 251.367 59.7392 249.404 61.3352C247.498 62.8722 246.112 65.0888 245.245 67.9852H263.871ZM271.407 33.6712L269.501 44.1338L250.27 35.1785L252.262 23.3858L271.407 33.6712Z" fill="#FDC500"/>
</svg>
