<svg width="395" height="298" viewBox="0 0 395 298" fill="none" xmlns="http://www.w3.org/2000/svg">
<g clip-path="url(#clip0_5_302)">
<path d="M0 180.837C0 181.194 0.286142 181.481 0.642467 181.481H394.358C394.714 181.481 395 181.194 395 180.837C395 180.48 394.714 180.193 394.358 180.193H0.642467C0.286142 180.193 0 180.48 0 180.837Z" fill="#3F3D56"/>
<path d="M252.107 44.166L254.173 70.6588L284.112 58.1224L267.223 31.1769L252.107 44.166Z" fill="#A0616A"/>
<path d="M251.21 52.2373C263.535 52.2373 273.527 42.2206 273.527 29.8644C273.527 17.5082 263.535 7.49155 251.21 7.49155C238.884 7.49155 228.893 17.5082 228.893 29.8644C228.893 42.2206 238.884 52.2373 251.21 52.2373Z" fill="#A0616A"/>
<path d="M209.458 238.46L213.237 272.442L186.784 268.768L195.421 237.378L209.458 238.46Z" fill="#A0616A"/>
<path d="M312.571 243.331L316.35 277.313L289.897 273.639L298.535 242.249L312.571 243.331Z" fill="#A0616A"/>
<path d="M249.677 140.772C249.316 140.772 220.446 142.225 201.372 143.187C192.344 143.643 185.472 151.476 186.173 160.511L192.992 248.473L212.427 249.014L212.901 178.116L251.297 180.28L249.677 140.772Z" fill="#2F2E41"/>
<path d="M334.435 140.231C334.435 140.231 339.294 177.574 335.515 181.363C331.736 185.151 213.237 178.386 213.237 178.386C213.237 178.386 239.233 140.752 243.915 139.68C248.598 138.607 323.098 134.819 323.098 134.819L334.435 140.231Z" fill="#2F2E41"/>
<path d="M180.922 93.2145C176.409 86.8873 176.008 79.4244 180.025 76.5459C184.042 73.6675 190.955 76.4636 195.468 82.7936C197.306 85.2974 198.519 88.2059 199.005 91.2758L217.788 118.326L207.099 125.745L187.786 99.3157C185.044 97.8606 182.691 95.7685 180.922 93.2145Z" fill="#A0616A"/>
<path d="M251.027 60.9435L278.56 49.5781L330.387 129.677C330.387 129.677 294.216 137.795 281.799 139.419C269.382 141.043 255.346 134.548 255.346 134.548L251.027 60.9435Z" fill="#FDC500"/>
<path d="M284.498 74.4738L274.511 43.2412L287.468 53.096C287.468 53.096 324.178 77.4504 324.178 87.7334C324.178 98.0164 335.515 129.407 335.515 129.407C335.515 129.407 348.202 139.96 343.883 149.702C339.564 159.444 349.552 158.091 350.631 165.126C351.711 172.162 335.245 181.633 335.245 181.633C335.245 181.633 331.196 141.854 318.24 141.854C305.283 141.854 284.498 74.4738 284.498 74.4738Z" fill="#00509D"/>
<path d="M252.962 60.1449L239.42 65.5438C239.42 65.5438 241.579 103.429 243.739 106.676C245.898 109.923 253.456 127.242 253.456 127.242V132.886C253.456 132.886 238.34 137.525 238.88 140.231C239.42 142.937 274.511 150.514 274.511 150.514C274.511 150.514 267.493 128.865 263.174 121.83C258.855 114.794 252.962 60.1449 252.962 60.1449Z" fill="#00509D"/>
<path d="M244.279 65.5438C244.279 65.5438 228.623 63.379 225.923 81.7801C223.224 100.181 224.939 102.617 224.939 102.617L220.525 113.17L205.949 96.934L191.912 106.135C191.912 106.135 217.286 147.267 227.543 146.184C237.8 145.102 252.917 115.335 252.917 115.335L244.279 65.5438Z" fill="#00509D"/>
<path d="M322.471 146.205L314.461 259.838L293.676 259.026C293.676 259.026 289.087 151.596 289.087 149.973C289.087 148.349 291.247 139.148 304.743 138.607C318.24 138.066 322.471 146.205 322.471 146.205Z" fill="#2F2E41"/>
<path d="M292.326 262.003C292.326 262.003 303.124 258.756 304.743 260.921C306.363 263.086 315.54 264.168 315.54 264.168L318.24 290.687C318.24 290.687 310.682 296.099 309.602 297.182C308.522 298.264 279.91 299.347 279.37 292.852C278.83 286.358 286.928 278.239 286.928 278.239L292.326 262.003Z" fill="#2F2E41"/>
<path d="M212.967 254.426C212.967 254.426 216.206 251.72 217.286 259.297C218.365 266.874 222.144 279.322 216.746 280.945C211.347 282.569 157.361 283.11 157.361 278.239V273.369L162.22 269.58L171.94 268.027C171.94 268.027 190.833 250.638 192.992 250.638C195.151 250.638 202.17 257.673 202.17 257.673L212.967 254.426Z" fill="#2F2E41"/>
<path d="M273.161 42.0012C273.161 42.0012 262.364 29.0121 258.045 30.0945C253.726 31.1769 256.426 32.8006 256.426 32.8006L245.628 20.894C245.628 20.894 236.991 17.6467 228.893 27.9297C228.893 27.9297 224.034 19.2703 228.893 14.3994C233.751 9.52854 235.371 10.0697 236.451 7.3637C237.53 4.65765 245.089 2.49281 245.089 2.49281C245.089 2.49281 244.655 -1.4022 247.031 0.5453C249.407 2.4928 255.342 2.49281 255.342 2.49281C255.342 2.49281 255.376 0.327966 257.79 2.49281C260.205 4.65765 262.904 3.57523 262.904 3.57523C262.904 3.57523 262.904 7.32108 264.793 7.34239C266.683 7.3637 269.922 4.65765 270.462 6.82249C271.002 8.98733 274.781 10.0697 275.321 16.5643C275.861 23.0588 273.161 42.0012 273.161 42.0012Z" fill="#2F2E41"/>
<path d="M185.169 96.7948L123.498 139.457C121.37 140.929 118.443 140.391 116.975 138.257L99.6121 113.032C98.1436 110.899 98.6803 107.965 100.808 106.493L162.48 63.8313C164.608 62.3591 167.534 62.897 169.003 65.0305L186.366 90.2557C187.834 92.3892 187.298 95.3226 185.169 96.7948Z" fill="white"/>
<path d="M168.89 65.1091L186.252 90.3341C187.681 92.4096 187.161 95.2489 185.091 96.6811L154.824 117.618C146.842 115.432 139.559 110.52 134.492 103.159C131.173 98.3377 129.173 92.9998 128.41 87.5678L162.558 63.945C164.629 62.5128 167.461 63.0335 168.89 65.1091Z" fill="#E6E6E6"/>
<path d="M120.843 140.828C119.18 140.828 117.544 140.037 116.53 138.565L99.1674 113.34C98.3755 112.189 98.0782 110.796 98.3307 109.417C98.5827 108.038 99.3541 106.842 100.502 106.048L162.173 63.3856C164.548 61.7445 167.81 62.3449 169.447 64.7228L186.81 89.9483C187.602 91.0994 187.9 92.4921 187.647 93.871C187.395 95.2494 186.624 96.4465 185.476 97.2403L123.804 139.902C122.9 140.528 121.866 140.828 120.843 140.828ZM165.137 63.5421C164.325 63.5421 163.505 63.7804 162.787 64.2767L101.115 106.939C100.204 107.568 99.5929 108.518 99.3925 109.613C99.1922 110.707 99.4278 111.812 100.056 112.725L117.419 137.95C118.718 139.837 121.307 140.314 123.191 139.011L184.863 96.3492C185.773 95.7198 186.385 94.77 186.585 93.6754C186.786 92.5814 186.55 91.4757 185.922 90.5635L168.558 65.338C167.755 64.17 166.456 63.5421 165.137 63.5421Z" fill="#3F3D56"/>
<path d="M121.289 128.233C119.726 129.314 119.332 131.468 120.41 133.035C121.489 134.602 123.638 134.997 125.201 133.916L131.55 129.524C133.113 128.443 133.507 126.288 132.429 124.721C131.35 123.154 129.201 122.759 127.638 123.841L121.289 128.233Z" fill="#00509D"/>
<path d="M125.592 93.0401C123.126 94.746 122.505 98.1452 124.206 100.617C125.908 103.09 129.299 103.713 131.765 102.007L141.642 95.1746C144.108 93.4687 144.73 90.0697 143.028 87.5974C141.326 85.1251 137.936 84.5016 135.469 86.2076L125.592 93.0401Z" fill="#00509D"/>
<path d="M183.693 100.562H108.764C106.178 100.562 104.074 98.4528 104.074 95.8607V65.2129C104.074 62.6208 106.178 60.512 108.764 60.512H183.693C186.278 60.512 188.382 62.6208 188.382 65.2129V95.8607C188.382 98.4528 186.278 100.562 183.693 100.562Z" fill="white"/>
<path d="M188.244 65.213V95.8606C188.244 98.3823 186.208 100.423 183.693 100.423H146.92C141.588 94.079 138.376 85.8896 138.376 76.9462C138.376 71.0879 139.753 65.5554 142.203 60.6501H183.693C186.208 60.6501 188.244 62.6913 188.244 65.213Z" fill="#E6E6E6"/>
<path d="M183.693 101.103H108.764C105.88 101.103 103.534 98.7514 103.534 95.8609V65.2127C103.534 62.3222 105.88 59.9708 108.764 59.9708H183.693C186.576 59.9708 188.922 62.3222 188.922 65.2127V95.8609C188.922 98.7514 186.576 101.103 183.693 101.103ZM108.764 61.0532C106.476 61.0532 104.614 62.9189 104.614 65.2127V95.8609C104.614 98.1547 106.476 100.02 108.764 100.02H183.693C185.981 100.02 187.842 98.1547 187.842 95.8609V65.2127C187.842 62.9189 185.981 61.0532 183.693 61.0532H108.764Z" fill="#3F3D56"/>
<path d="M113.304 90.0658C111.405 90.0658 109.86 91.6146 109.86 93.5184C109.86 95.4221 111.405 96.9709 113.304 96.9709H121.018C122.917 96.9709 124.462 95.4221 124.462 93.5184C124.462 91.6146 122.917 90.0658 121.018 90.0658H113.304Z" fill="#00509D"/>
<path d="M136.784 63.5503C133.788 63.5503 131.35 65.994 131.35 68.9977C131.35 72.0015 133.788 74.4449 136.784 74.4449H148.784C151.781 74.4449 154.218 72.0015 154.218 68.9977C154.218 65.994 151.781 63.5503 148.784 63.5503H136.784Z" fill="#00509D"/>
<path d="M246.317 206.639H171.387C168.802 206.639 166.698 204.53 166.698 201.938V171.29C166.698 168.698 168.802 166.589 171.387 166.589H246.317C248.902 166.589 251.006 168.698 251.006 171.29V201.938C251.006 204.53 248.902 206.639 246.317 206.639Z" fill="white"/>
<path d="M250.868 171.29V201.938C250.868 204.459 248.832 206.501 246.317 206.501H209.543C204.212 200.156 201 191.967 201 183.023C201 177.165 202.377 171.633 204.827 166.727H246.317C248.832 166.727 250.868 168.769 250.868 171.29Z" fill="#E6E6E6"/>
<path d="M246.316 207.18H171.388C168.504 207.18 166.158 204.829 166.158 201.938V171.29C166.158 168.399 168.504 166.048 171.388 166.048H246.316C249.2 166.048 251.546 168.399 251.546 171.29V201.938C251.546 204.829 249.2 207.18 246.316 207.18ZM171.388 167.13C169.099 167.13 167.238 168.996 167.238 171.29V201.938C167.238 204.232 169.099 206.098 171.388 206.098H246.316C248.604 206.098 250.466 204.232 250.466 201.938V171.29C250.466 168.996 248.604 167.13 246.316 167.13H171.388Z" fill="#3F3D56"/>
<path d="M175.928 196.143C174.029 196.143 172.484 197.692 172.484 199.596C172.484 201.499 174.029 203.048 175.928 203.048H183.642C185.541 203.048 187.086 201.499 187.086 199.596C187.086 197.692 185.541 196.143 183.642 196.143H175.928Z" fill="#00509D"/>
<path d="M199.408 169.627C196.412 169.627 193.974 172.071 193.974 175.075C193.974 178.079 196.412 180.522 199.408 180.522H211.408C214.404 180.522 216.842 178.079 216.842 175.075C216.842 172.071 214.404 169.627 211.408 169.627H199.408Z" fill="#00509D"/>
<path d="M251.399 179.15C244.517 182.742 237.09 182.094 234.811 177.703C232.531 173.312 236.262 166.842 243.146 163.25C245.877 161.777 248.919 160.981 252.02 160.928L281.369 146.077L287.198 157.727L258.387 173.192C256.566 175.709 254.17 177.752 251.399 179.15Z" fill="#A0616A"/>
<path d="M284.768 52.5547C284.768 52.5547 315.001 50.9311 321.479 67.1674C327.957 83.4037 333.356 136.442 333.356 136.442L267.493 172.365L256.156 154.843L300.424 120.206L284.768 52.5547Z" fill="#00509D"/>
</g>
<defs>
<clipPath id="clip0_5_302">
<rect width="395" height="298" fill="white"/>
</clipPath>
</defs>
</svg>
