<svg width="163" height="111" viewBox="0 0 163 111" fill="none" xmlns="http://www.w3.org/2000/svg">
<path d="M152.171 0.0833359H11.4C5.41953 0.0833359 0.571411 5.04551 0.571411 11.1667V99.8333C0.571411 105.954 5.41953 110.917 11.4 110.917H152.171C158.152 110.917 163 105.954 163 99.8333V11.1667C163 5.04551 158.152 0.0833359 152.171 0.0833359Z" fill="#00509D"/>
<path d="M42.4996 35.7938C48.7369 35.7938 53.6747 37.5375 57.3131 41.0252C61.0084 44.4535 62.8574 49.1529 62.8574 55.1232C62.8574 57.0738 62.7139 58.8175 62.4242 60.3545C62.1941 61.7142 61.8476 63.1622 61.3847 64.6992H27.8594C27.8018 65.0538 27.7728 65.6155 27.7728 66.3838C27.7728 68.9848 28.4658 70.9649 29.8519 72.3245C31.2379 73.6842 33.0861 74.3638 35.3961 74.3638C39.0922 74.3638 41.9222 72.7678 43.8857 69.5758H59.6521C57.573 74.6002 54.1945 78.7085 49.5166 81.9005C44.8386 85.0925 39.5832 86.6885 33.7501 86.6885C27.5129 86.6885 22.5174 84.9152 18.7634 81.3685C15.0674 77.8218 13.2192 73.0042 13.2192 66.9158C13.2192 65.0835 13.3924 63.1918 13.739 61.2412C14.6052 56.0985 16.3955 51.6062 19.1099 47.7638C21.8244 43.9215 25.2029 40.9662 29.2455 38.8972C33.2881 36.8282 37.7061 35.7938 42.4996 35.7938ZM47.8706 56.9852C47.9862 56.1575 48.0439 55.5961 48.0439 55.3005C48.0439 52.9361 47.3219 51.1332 45.8782 49.8918C44.4344 48.5915 42.5286 47.9412 40.1607 47.9412C37.6195 47.9412 35.3671 48.7392 33.4036 50.3352C31.4978 51.8722 30.1118 54.0888 29.2455 56.9852H47.8706ZM55.4073 22.6712L53.5015 33.1338L34.2699 24.1785L36.2624 12.3858L55.4073 22.6712Z" fill="#FDC500"/>
</svg>
